<svg xmlns="http://www.w3.org/2000/svg" viewBox="0 0 512 512" width="512" height="512">
  <!-- App icon: dark Wordle-style background with letter tiles -->
  <rect width="512" height="512" rx="96" fill="#121213"/>

  <!-- Row 1: gray, yellow, gray, green, gray (GUESS word feel) -->
  <rect x="56"  y="80"  width="80" height="80" rx="10" fill="#818384"/>
  <rect x="152" y="80"  width="80" height="80" rx="10" fill="#b59f3b"/>
  <rect x="248" y="80"  width="80" height="80" rx="10" fill="#818384"/>
  <rect x="344" y="80"  width="80" height="80" rx="10" fill="#538d4e"/>
  <rect x="440" y="80"  width="80" height="80" rx="10" fill="#818384"/>

  <!-- Row 2: yellow, gray, green, gray, yellow -->
  <rect x="56"  y="176" width="80" height="80" rx="10" fill="#b59f3b"/>
  <rect x="152" y="176" width="80" height="80" rx="10" fill="#818384"/>
  <rect x="248" y="176" width="80" height="80" rx="10" fill="#538d4e"/>
  <rect x="344" y="176" width="80" height="80" rx="10" fill="#818384"/>
  <rect x="440" y="176" width="80" height="80" rx="10" fill="#b59f3b"/>

  <!-- Row 3: all green (solved!) -->
  <rect x="56"  y="272" width="80" height="80" rx="10" fill="#538d4e"/>
  <rect x="152" y="272" width="80" height="80" rx="10" fill="#538d4e"/>
  <rect x="248" y="272" width="80" height="80" rx="10" fill="#538d4e"/>
  <rect x="344" y="272" width="80" height="80" rx="10" fill="#538d4e"/>
  <rect x="440" y="272" width="80" height="80" rx="10" fill="#538d4e"/>

  <!-- "PQ" wordmark -->
  <text x="256" y="430" text-anchor="middle" font-family="Georgia, serif" font-size="72" font-weight="bold" fill="#ffffff" opacity="0.85">PQ</text>
</svg>
